<svg width="1353" height="375" viewBox="0 0 1353 375" fill="none" xmlns="http://www.w3.org/2000/svg">
<path fill-rule="evenodd" clip-rule="evenodd" d="M284.741 68.0322C286.74 67.9387 288.754 68.0692 290.754 68.1592C289.151 70.4174 286.265 73.7048 285.01 75.8633C297.662 70.5015 309.947 71.2107 322.998 74.5254C320.47 76.6054 317.863 78.3593 315.343 80.582C326.784 80.5148 336.918 82.8527 341.884 94.4893C342.14 94.4315 342.397 94.3785 342.655 94.3301C348.736 93.217 353.994 93.0519 359.966 94.7549C376.035 99.3376 388.652 112.275 391.708 128.691C387.403 128.266 383.795 127.108 379.588 126.464C378.907 126.36 378.707 126.724 378.308 127.137C378.251 128.541 379.179 129.233 380.338 129.876C395.875 138.5 404.255 151.291 399.85 169.382C396.604 167.447 393.418 165.071 390.105 163.168C390.173 163.345 390.24 163.522 390.306 163.7C392.456 169.508 392.561 175.546 389.965 181.213C387.426 179.554 384.857 177.572 382.411 175.752C382.717 177.033 382.919 178.336 383.016 179.649C383.38 185.257 381.565 190.788 377.95 195.094C375.853 192.952 373.715 190.85 371.538 188.789C370.506 194.492 368.767 197.271 364.34 200.916C363.492 197.929 362.578 195.245 361.569 192.318C359.422 199.632 357.427 203.397 350.169 206.54C349.396 203.552 347.853 197.023 346.175 194.409C346.152 194.349 345.681 194.033 345.639 194.073C339.904 199.536 335.268 202.446 326.869 202.459C328.609 197.485 329.666 191.844 330.777 186.666C326.92 194.161 321.944 201.248 316.436 207.628C313.363 211.186 309.185 214.818 306.938 218.951C303.818 224.692 302.449 231.646 301.423 238.027C299.544 249.717 297.681 279.903 304.555 289.21C306.344 291.63 309.065 292.82 311.882 293.642C319.748 295.945 329.142 296.361 337.314 297.229L372.362 300.936C378.593 301.611 385.699 302.251 391.807 303.206C389.401 303.547 385.439 303.638 382.885 303.771C376.141 304.093 369.395 304.356 362.646 304.561C343.025 305.155 323.398 305.575 303.77 305.818C282.988 306.267 261.249 305.802 240.461 305.324C220.275 304.86 198.315 304.805 178.219 303.252L221.493 298.031L236.4 296.315C241.466 295.737 247.877 295.519 251.93 292.381C257.137 288.346 259.521 278.137 260.09 271.904C262.339 247.277 259.042 212.122 243.584 192.167C243.956 193.59 244.171 195.096 244.409 196.552C240.036 197.126 237.626 196.105 233.953 193.886C235.607 198.127 237.706 202.182 240.215 205.981C230.342 204.605 226.721 202.102 220.363 194.803C220.38 198.068 220.254 201.551 220.193 204.833C219.514 204.576 218.843 204.299 218.179 204.005C209.722 200.27 206.312 194.115 203.188 186.058C201.596 189.883 200.338 193.89 198.74 197.589C189.109 192.192 184.919 178.845 187.382 168.449C183.956 171.605 182.626 173.818 180.109 177.724C176.984 170.175 177.182 163.724 179.839 156.086C176.504 158.301 172.956 161.22 169.61 163.202C168.93 160.149 168.817 156.997 169.278 153.903C171.23 140.312 181.563 131.602 191.764 123.94C188.048 124.442 184.194 125.301 180.507 126.056C182.697 110.394 197.786 99.2528 212.419 96.0166C210.422 94.8121 207.788 93.9798 205.387 92.5566C207.899 89.4979 213.738 85.8872 217.394 84.1816C224.802 80.7256 233.45 78.6921 241.597 80.3437C244.031 80.8372 247.374 82.253 249.828 83.1387C254.907 79.8886 252.804 76.4158 260.903 73.2197C269.753 69.7276 275.174 68.5137 284.741 68.0322ZM299.612 191.181C297.667 200.41 293.748 210.203 291.302 219.256C286.782 235.98 278.741 268.777 283.681 285.225L283.942 285.395C283.787 275.531 285.293 266.529 286.934 256.83C289.309 243.288 292.086 229.818 295.26 216.44C296.256 212.175 301.42 194.302 299.612 191.181ZM268.634 203.465C269.512 213.978 272.679 232.642 275.964 242.674C275.482 243.843 274.718 246.17 273.678 246.703C273.148 245.349 272.409 242.278 271.84 240.572C270.381 236.328 268.808 232.123 267.121 227.964C268.462 234.361 269.886 240.512 270.957 246.991C271.849 252.973 272.685 258.112 272.997 264.144C276.519 249.905 281.012 233.328 280.758 218.654C280.663 213.18 273.226 206.179 268.634 203.465ZM289.701 160.657C290.347 165.942 291.031 171.271 291.441 176.576C286.743 174.65 285.278 172.681 282.473 168.545C283.012 172.638 283.21 176.727 283.66 180.828C284.403 187.322 285.44 193.779 286.768 200.179C287.098 201.878 287.593 205.738 288.748 206.862C289.504 206.988 289.15 207.043 289.845 206.657C290.892 205.09 291.992 200.91 292.471 199.051C294.925 189.514 296.973 179.634 294.817 169.831C294.048 166.331 293.37 162.23 289.701 160.657ZM315.47 177.265C310.836 184.732 307.355 195.44 306.425 204.275C308.309 202.584 309.901 201.184 311.589 199.307C315.409 195.149 320.889 187.094 323.355 181.951L316.153 184.269C316.057 182.938 315.792 178.237 315.47 177.265ZM268.799 172.871C267.948 177.323 267.719 190.077 267.937 194.792C271.487 197.653 274.943 200.629 278.3 203.714L278.608 203.729C278.613 197.645 273.64 188.955 271.501 183.305C269.952 179.212 269.683 176.979 268.799 172.871ZM253.605 169.243C254.33 173.451 255.136 179.174 255.228 183.421C252.152 182.504 250.435 181.549 247.801 179.723C249.599 183.843 251.785 187.784 254.33 191.49C255.848 193.487 257.029 195.181 258.985 196.786C259.8 192.481 259.923 183.933 259.958 179.322C258.127 176.6 255.717 171.316 253.605 169.243ZM235.15 174.573C233.726 178.56 232.933 181.028 230.279 184.437C226.519 182.632 224.63 180.312 222.228 177.022C217.427 186.962 216.845 186.704 210.171 177.521C210.608 178.641 211.057 179.865 211.527 180.961C216.29 190.199 220.12 190.242 222.541 179.918C223.832 181.847 229.163 189.249 231.926 187.018C234.019 185.326 235.77 177.292 235.15 174.573ZM364.656 133.42C369.412 137.122 373.313 140.46 376.126 145.972C371.757 146.472 369.853 146.512 365.48 145.464C369.269 148.761 371.926 152.828 373.835 157.446C374.332 158.648 375.154 159.97 374.837 161.273C373.197 162.516 367.98 159.716 366.206 158.826C367.064 164.129 366.565 168.375 364.868 173.465C360.987 171.509 359.932 170.65 356.52 167.892C356.456 172.37 355.709 176.368 353.992 180.533C348.862 178.205 347.2 175.766 344.269 171.111C343.003 174.472 341.795 177.983 339.319 180.667C335.021 176.765 333.725 171.228 332.789 165.702C331.079 167.151 329.467 168.61 327.51 169.719C324.309 164.069 324.076 161.992 323.437 155.898C322.243 161.752 321.906 167.383 325.412 172.681C325.551 172.894 325.697 173.102 325.85 173.306C326.232 173.59 326.462 173.899 326.806 173.778C328.54 173.168 331.121 169.695 332.244 168.338C332.449 172.292 334.753 184.211 339.445 184.089C341.678 183.169 343.888 176.835 344.534 174.523C347.294 179.159 349.548 182.739 355.026 184.315C356.782 180.067 357.742 176.281 357.847 171.635C360.674 174.922 362.453 177.018 366.076 179.472C369.417 173.977 369.591 168.977 369.099 162.758C371.87 165.447 373.871 167.187 377.07 169.388C377.78 162.512 377.001 154.775 373.568 148.655C377.881 149.843 382.199 151.009 386.523 152.153C383.837 139.668 376.356 135.279 364.656 133.42ZM195.941 158.781C193.884 166.223 193.993 174.204 197.866 181.066C199.509 179.249 201.051 176.888 202.437 174.839C203.656 173.137 204.64 171.687 205.747 169.912C203.252 171.972 201.989 172.924 198.979 174.354C196.74 170.601 196.308 166.388 196.106 162.126C196.072 161.4 196.055 159.341 195.941 158.781ZM306.709 155.587C306.243 155.938 305.432 156.498 305.445 157.076C305.51 159.898 306.162 163.25 306.392 166.068C306.676 169.98 306.721 173.905 306.526 177.822C307.318 176.516 307.812 175.487 308.461 174.122C310.188 170.568 312.035 166.729 314.03 163.321C310.782 160.495 310.872 158.824 308.167 155.951C307.94 155.71 307.073 155.617 306.709 155.587ZM238.964 170.453C239.435 167.869 239.503 165.561 236.309 165.878C235.733 167.002 235.503 170.782 235.619 172.053C236.264 172.246 237.164 171.882 237.856 171.686C238.528 171.332 238.813 171.278 238.964 170.453ZM235.114 139.989C234.076 144.778 236.608 150.918 239.092 155.002C243.451 162.169 245.475 158.094 248.332 152.854C250.49 158.846 254.583 163.623 260.056 166.855C264.795 169.654 264.57 159.578 264.595 157.14C268.578 161.391 271.594 164.049 277.42 165.716C282.685 161.567 284.185 156.197 284.053 149.665C283.699 147.98 283.177 146.54 282.447 144.977C282.655 150.592 281.689 156.915 277.672 161.165C277.328 161.525 276.971 161.873 276.604 162.208C271.612 160.916 266.684 157.155 263.419 153.204C263.072 156.729 262.764 160.655 261.504 164.008C255.104 161.18 250.932 155.839 248.223 149.543C246.69 152.093 245.898 153.374 243.534 155.274C239.187 152.035 236.568 145.073 235.114 139.989ZM225.106 140.985C218.335 145.108 218.312 154.91 221.342 161.373C222.559 160.803 223.444 160.426 224.54 159.652C228.558 156.088 234.184 149.879 229.8 144.507C228.515 142.933 227.16 141.342 225.106 140.985ZM274.054 75.0498C263.956 77.5049 255.317 84.8266 255.07 95.8691C252.095 92.115 249.146 89.4915 244.534 87.8223C236.439 84.8932 225.444 85.945 218.346 90.8408C223.56 92.78 228.562 93.6858 234.322 95.9619C231.314 95.6737 228.211 95.5942 225.225 96.1426C226.41 97.1811 228.587 98.9982 229.58 100.083C218.043 99.9924 202.603 103.62 196.183 114.229C201.905 115.225 203.989 114.88 209.638 114.34C208.296 115.818 207.908 116.451 207.193 118.326C197.115 123.807 189.811 130.286 184.672 140.748C189.154 139.378 194.13 136.681 198.116 134.214C195.674 137.953 194.444 140.586 193.805 145.093C200.521 144.234 205.723 140.158 210.913 136.163C207.048 141.037 204.21 146.474 204.982 152.921C205.082 153.783 205.244 154.638 205.468 155.477C212.456 153.278 216.402 149.122 219.978 142.837C222.148 139.021 221.491 135.946 223.345 132.167C218.156 134.278 213.926 135.74 208.147 134.99C209.698 127.718 212.953 123.016 219.082 118.757C216.443 118.234 215.068 117.914 212.637 116.604C220.002 106.714 232.553 102.011 244.384 106.38C234.591 107.984 224.156 112.412 221.399 123.008C225.744 123.712 227.865 123.336 232.081 121.798C236.345 120.094 238.359 119.023 242.325 116.673C238.285 122.242 235.709 128.062 239.04 134.718C244.475 132.931 248.098 128.284 250.58 123.33C250.96 122.555 251.32 121.77 251.66 120.977C251.165 129.069 253.099 136.461 260.669 140.735C264.797 135.796 264.849 128.584 264.293 122.455C264.226 121.644 264.141 120.834 264.038 120.027C268.485 127.093 274.716 134.396 283.442 136.613C283.695 136.678 284.083 136.681 284.354 136.669C288.662 133.006 284.322 119.652 282.41 115.177C289.508 116.974 293.698 117.949 300.993 115.881C298.679 110.307 292.197 106.423 286.822 104.12C280.58 101.446 273.719 100.742 267.114 102.521C272.099 96.7844 279.051 93.0492 286.678 92.5547C287.644 92.4962 288.612 92.4828 289.579 92.5146C288.286 95.3841 287.279 96.6285 285.35 99.0205C292.031 99.4708 297.782 101.587 303.118 105.736C303.786 106.256 304.908 107.39 305.679 107.258C306.595 105.526 304.08 101.687 303.073 100.281C307.137 101.936 319.797 106.834 323.792 105.382C325.664 103.321 320.622 99.1005 319.07 97.6973C324.396 97.529 328.812 96.8715 333.476 93.998C325.16 86.2594 307.847 86.2871 297.412 88.4111C301.405 85.3177 303.899 83.6349 306.309 79.0635C294.121 77.7848 280.062 79.8805 270.273 87.7207L270.147 87.8232C271.232 85.9458 276.032 76.6853 274.054 75.0498ZM336.696 122.616C335.077 122.713 333.19 122.77 331.615 123.058C334.111 126.139 334.886 127.274 335.927 131.177C332.611 129.443 329.721 127.937 326.194 126.622C326.278 128.734 326.337 130.11 326.157 132.221C323.136 129.172 319.502 126.985 315.489 125.482C317.356 130.764 317.816 132.704 317.062 138.325C312.246 137.759 309.29 137.061 304.917 134.754C308.968 141.493 313.664 147.769 321.753 149.746L321.926 149.787C322.733 146.858 322.763 145.33 322.498 142.334C323.752 143.941 325.024 146.007 326.872 146.818C329.152 146.726 328.704 142.197 328.712 140.459L329.854 142.647C332.632 147.805 337.022 152.086 342.771 153.729C344.655 145.942 342.952 140.06 337.805 134.04C343.286 137.913 349.857 144.056 354.709 147.227L355.109 147.127C355.918 144.649 353.192 141.138 351.668 139.416C355.798 140.002 358.733 140.452 362.869 139.146C359.921 132.498 353.528 127.123 346.791 124.516C343.578 123.247 340.151 122.603 336.696 122.616ZM293.089 127.013C295.475 130.429 298.143 134.904 299.333 138.907C296.209 139.14 295.178 139.065 292.089 138.379C294.341 142.064 296.263 144.645 299.65 147.429C301.085 148.543 301.685 148.873 303.313 149.705C304.813 144.438 304.523 139.666 302.063 134.612C300.924 132.274 295.093 127.737 293.089 127.013ZM376.867 114.493C371.223 104.957 356.03 98.505 345.218 100.421C341.192 100.925 337.82 101.721 334.043 103.306C340.572 106.061 345.281 108.495 350.648 113.322C351.892 114.441 355.003 117.848 355.919 118.42C358.141 117.419 357.008 111.764 356.56 109.822C357.511 110.519 358.673 111.419 359.662 112.007C365.533 115.151 370.402 115.507 376.867 114.493Z" fill="#419053"/>
<path d="M405.352 184.376C407.571 184.461 410.472 184.547 414.056 184.632C417.64 184.717 421.224 184.76 424.808 184.76C428.904 184.76 432.872 184.717 436.712 184.632C440.552 184.547 443.283 184.504 444.904 184.504C455.485 184.504 463.379 186.381 468.584 190.136C473.875 193.891 476.52 198.712 476.52 204.6C476.52 207.587 475.624 210.616 473.832 213.688C472.04 216.76 469.267 219.491 465.512 221.88C461.757 224.269 456.893 226.019 450.92 227.128V227.384C458.941 227.981 465.299 229.432 469.992 231.736C474.685 234.04 478.056 236.813 480.104 240.056C482.152 243.299 483.176 246.669 483.176 250.168C483.176 255.544 481.768 260.067 478.952 263.736C476.136 267.405 472.083 270.221 466.792 272.184C461.501 274.061 455.187 275 447.848 275C445.8 275 442.856 274.957 439.016 274.872C435.176 274.701 430.525 274.616 425.064 274.616C421.309 274.616 417.64 274.659 414.056 274.744C410.472 274.744 407.571 274.829 405.352 275V272.44C408.083 272.269 410.131 271.928 411.496 271.416C412.861 270.904 413.757 269.88 414.184 268.344C414.696 266.808 414.952 264.504 414.952 261.432V197.944C414.952 194.787 414.696 192.483 414.184 191.032C413.757 189.496 412.819 188.472 411.368 187.96C410.003 187.363 407.997 187.021 405.352 186.936V184.376ZM443.24 186.936C439.912 186.936 437.736 187.661 436.712 189.112C435.773 190.563 435.304 193.507 435.304 197.944V261.432C435.304 264.419 435.517 266.68 435.944 268.216C436.456 269.752 437.309 270.776 438.504 271.288C439.784 271.8 441.661 272.056 444.136 272.056C450.28 272.056 454.76 270.136 457.576 266.296C460.477 262.371 461.928 256.824 461.928 249.656C461.928 243.085 460.264 238.008 456.936 234.424C453.693 230.84 448.275 229.048 440.68 229.048H429.8C429.8 229.048 429.8 228.707 429.8 228.024C429.8 227.256 429.8 226.872 429.8 226.872H440.808C444.819 226.872 447.891 225.933 450.024 224.056C452.157 222.093 453.651 219.533 454.504 216.376C455.357 213.133 455.784 209.677 455.784 206.008C455.784 199.693 454.803 194.957 452.84 191.8C450.877 188.557 447.677 186.936 443.24 186.936ZM553.816 207.416V261.048C553.816 264.888 554.413 267.747 555.608 269.624C556.803 271.416 558.936 272.312 562.008 272.312V275C559.363 274.744 556.717 274.616 554.072 274.616C550.488 274.616 547.16 274.744 544.088 275C541.016 275.256 538.115 275.725 535.384 276.408V264.888C533.336 269.155 530.477 272.227 526.808 274.104C523.224 275.896 519.213 276.792 514.776 276.792C511.192 276.792 508.291 276.323 506.072 275.384C503.853 274.445 502.104 273.251 500.824 271.8C499.373 270.179 498.349 268.045 497.752 265.4C497.155 262.755 496.856 259.341 496.856 255.16V222.776C496.856 218.936 496.259 216.12 495.064 214.328C493.955 212.451 491.821 211.512 488.664 211.512V208.824C491.395 209.08 494.04 209.208 496.6 209.208C500.184 209.208 503.512 209.08 506.584 208.824C509.741 208.483 512.643 208.013 515.288 207.416V260.408C515.288 262.541 515.459 264.419 515.8 266.04C516.227 267.661 516.995 268.941 518.104 269.88C519.213 270.733 520.835 271.16 522.968 271.16C525.272 271.16 527.32 270.52 529.112 269.24C530.989 267.96 532.483 266.211 533.592 263.992C534.787 261.688 535.384 259.128 535.384 256.312V222.776C535.384 218.936 534.787 216.12 533.592 214.328C532.483 212.451 530.349 211.512 527.192 211.512V208.824C529.923 209.08 532.568 209.208 535.128 209.208C538.712 209.208 542.04 209.08 545.112 208.824C548.269 208.483 551.171 208.013 553.816 207.416ZM611.601 207.032C618.257 207.032 623.761 209.763 628.113 215.224C632.55 220.6 634.769 228.92 634.769 240.184C634.769 249.059 633.404 256.184 630.673 261.56C628.028 266.936 624.486 270.819 620.049 273.208C615.612 275.597 610.748 276.792 605.457 276.792C601.958 276.792 598.716 276.195 595.729 275C592.742 273.805 590.182 271.843 588.049 269.112L589.841 268.472C591.377 270.349 593.169 271.757 595.217 272.696C597.35 273.635 599.441 274.104 601.489 274.104C606.182 274.104 609.681 271.459 611.985 266.168C614.289 260.877 615.441 252.813 615.441 241.976C615.441 234.637 614.972 228.835 614.033 224.568C613.18 220.216 611.9 217.144 610.193 215.352C608.486 213.475 606.438 212.536 604.049 212.536C601.062 212.536 598.332 213.773 595.857 216.248C593.382 218.637 591.974 222.008 591.633 226.36L590.993 221.88C592.529 217.016 595.132 213.347 598.801 210.872C602.47 208.312 606.737 207.032 611.601 207.032ZM592.017 174.904V272.44C589.884 272.099 587.708 272.099 585.489 272.44C583.27 272.781 581.222 273.379 579.345 274.232C577.468 275 575.889 275.939 574.609 277.048L572.689 275.896C573.03 274.701 573.244 273.507 573.329 272.312C573.5 271.117 573.585 269.923 573.585 268.728V190.264C573.585 186.424 572.988 183.608 571.793 181.816C570.684 179.939 568.55 179 565.393 179V176.312C568.124 176.568 570.769 176.696 573.329 176.696C576.828 176.696 580.156 176.568 583.313 176.312C586.47 175.971 589.372 175.501 592.017 174.904ZM659.337 175.8C662.921 175.8 665.737 176.696 667.785 178.488C669.918 180.195 670.985 182.584 670.985 185.656C670.985 188.728 669.918 191.16 667.785 192.952C665.737 194.659 662.921 195.512 659.337 195.512C655.753 195.512 652.894 194.659 650.761 192.952C648.713 191.16 647.689 188.728 647.689 185.656C647.689 182.584 648.713 180.195 650.761 178.488C652.894 176.696 655.753 175.8 659.337 175.8ZM669.321 207.416V263.096C669.321 266.68 669.918 269.112 671.113 270.392C672.393 271.672 674.526 272.312 677.513 272.312V275C675.977 274.915 673.588 274.829 670.345 274.744C667.102 274.573 663.817 274.488 660.489 274.488C657.161 274.488 653.79 274.573 650.377 274.744C646.964 274.829 644.404 274.915 642.697 275V272.312C645.684 272.312 647.774 271.672 648.969 270.392C650.249 269.112 650.889 266.68 650.889 263.096V222.776C650.889 218.936 650.292 216.12 649.097 214.328C647.988 212.451 645.854 211.512 642.697 211.512V208.824C645.428 209.08 648.073 209.208 650.633 209.208C654.217 209.208 657.545 209.08 660.617 208.824C663.774 208.483 666.676 208.013 669.321 207.416ZM730.688 207.032C734.272 207.032 737.173 207.501 739.392 208.44C741.696 209.293 743.488 210.488 744.768 212.024C746.133 213.645 747.115 215.736 747.712 218.296C748.395 220.856 748.736 224.312 748.736 228.664V263.096C748.736 266.68 749.333 269.112 750.528 270.392C751.808 271.672 753.941 272.312 756.928 272.312V275C755.307 274.915 752.875 274.829 749.632 274.744C746.389 274.573 743.189 274.488 740.032 274.488C736.789 274.488 733.589 274.573 730.432 274.744C727.36 274.829 725.013 274.915 723.392 275V272.312C725.952 272.312 727.744 271.672 728.768 270.392C729.792 269.112 730.304 266.68 730.304 263.096V223.288C730.304 221.155 730.091 219.32 729.664 217.784C729.237 216.163 728.469 214.925 727.36 214.072C726.251 213.133 724.587 212.664 722.368 212.664C720.064 212.664 717.931 213.304 715.968 214.584C714.091 215.864 712.555 217.656 711.36 219.96C710.251 222.179 709.696 224.696 709.696 227.512V263.096C709.696 266.68 710.208 269.112 711.232 270.392C712.341 271.672 714.133 272.312 716.608 272.312V275C715.072 274.915 712.811 274.829 709.824 274.744C706.923 274.573 703.893 274.488 700.736 274.488C697.493 274.488 694.165 274.573 690.752 274.744C687.339 274.829 684.779 274.915 683.072 275V272.312C686.059 272.312 688.149 271.672 689.344 270.392C690.624 269.112 691.264 266.68 691.264 263.096V222.776C691.264 218.936 690.667 216.12 689.472 214.328C688.363 212.451 686.229 211.512 683.072 211.512V208.824C685.803 209.08 688.448 209.208 691.008 209.208C694.592 209.208 697.92 209.08 700.992 208.824C704.149 208.483 707.051 208.013 709.696 207.416V218.936C711.829 214.584 714.731 211.512 718.4 209.72C722.069 207.928 726.165 207.032 730.688 207.032ZM785.654 299.064C780.363 299.064 775.627 298.595 771.446 297.656C767.35 296.803 764.107 295.437 761.718 293.56C759.414 291.768 758.262 289.549 758.262 286.904C758.262 284.259 759.457 281.869 761.846 279.736C764.235 277.688 767.777 276.067 772.47 274.872L773.622 276.92C772.001 278.2 770.806 279.565 770.038 281.016C769.355 282.552 769.014 284.131 769.014 285.752C769.014 289.336 770.635 292.067 773.878 293.944C777.206 295.907 781.686 296.888 787.318 296.888C791.158 296.888 794.571 296.376 797.558 295.352C800.63 294.328 803.019 292.792 804.726 290.744C806.518 288.696 807.414 286.179 807.414 283.192C807.414 280.632 806.475 278.456 804.598 276.664C802.721 274.957 798.966 274.104 793.334 274.104H785.398C781.899 274.104 778.827 273.72 776.182 272.952C773.622 272.184 771.617 270.989 770.166 269.368C768.715 267.661 767.99 265.528 767.99 262.968C767.99 259.384 769.398 256.227 772.214 253.496C775.03 250.765 779.211 248.205 784.758 245.816L786.038 246.84C784.417 247.864 782.881 248.973 781.43 250.168C780.065 251.277 779.382 252.728 779.382 254.52C779.382 257.251 781.089 258.616 784.502 258.616H798.454C803.147 258.616 807.329 259.171 810.998 260.28C814.753 261.389 817.697 263.224 819.83 265.784C822.049 268.259 823.158 271.501 823.158 275.512C823.158 279.693 821.793 283.576 819.062 287.16C816.417 290.744 812.321 293.603 806.774 295.736C801.227 297.955 794.187 299.064 785.654 299.064ZM786.934 247.736C782.07 247.736 777.718 247.011 773.878 245.56C770.038 244.109 767.009 241.891 764.79 238.904C762.571 235.917 761.462 232.077 761.462 227.384C761.462 222.691 762.571 218.851 764.79 215.864C767.009 212.792 770.038 210.573 773.878 209.208C777.718 207.757 782.07 207.032 786.934 207.032C791.798 207.032 796.15 207.757 799.99 209.208C803.83 210.573 806.859 212.792 809.078 215.864C811.297 218.851 812.406 222.691 812.406 227.384C812.406 232.077 811.297 235.917 809.078 238.904C806.859 241.891 803.83 244.109 799.99 245.56C796.15 247.011 791.798 247.736 786.934 247.736ZM786.934 245.432C789.238 245.432 791.03 244.152 792.31 241.592C793.59 238.947 794.23 234.211 794.23 227.384C794.23 220.557 793.59 215.864 792.31 213.304C791.03 210.659 789.238 209.336 786.934 209.336C784.715 209.336 782.923 210.659 781.558 213.304C780.278 215.864 779.638 220.557 779.638 227.384C779.638 234.211 780.278 238.947 781.558 241.592C782.923 244.152 784.715 245.432 786.934 245.432ZM806.902 218.04L804.342 217.144C805.622 213.816 807.67 211.043 810.486 208.824C813.387 206.605 816.502 205.496 819.83 205.496C822.561 205.496 824.609 206.264 825.974 207.8C827.425 209.251 828.15 211.171 828.15 213.56C828.15 216.12 827.467 218.04 826.102 219.32C824.737 220.515 823.201 221.112 821.494 221.112C820.043 221.112 818.678 220.6 817.398 219.576C816.203 218.552 815.521 217.016 815.35 214.968C815.179 212.835 815.905 210.104 817.526 206.776L818.422 207.544C815.179 208.739 812.747 210.147 811.126 211.768C809.505 213.304 808.097 215.395 806.902 218.04ZM847.986 275.896C844.146 275.896 840.946 275.171 838.386 273.72C835.826 272.269 833.949 270.349 832.754 267.96C831.559 265.485 830.962 262.797 830.962 259.896C830.962 256.227 831.773 253.24 833.394 250.936C835.101 248.632 837.277 246.755 839.922 245.304C842.567 243.853 845.341 242.659 848.242 241.72C851.229 240.781 854.045 239.885 856.69 239.032C859.421 238.093 861.597 237.027 863.218 235.832C864.925 234.552 865.778 232.931 865.778 230.968V220.984C865.778 218.765 865.394 216.803 864.626 215.096C863.943 213.304 862.834 211.939 861.298 211C859.847 210.061 857.927 209.592 855.538 209.592C853.831 209.592 852.125 209.848 850.418 210.36C848.711 210.787 847.303 211.555 846.194 212.664C848.583 213.517 850.418 214.84 851.698 216.632C853.063 218.339 853.746 220.301 853.746 222.52C853.746 225.421 852.722 227.725 850.674 229.432C848.711 231.139 846.365 231.992 843.634 231.992C840.562 231.992 838.215 231.053 836.594 229.176C835.058 227.213 834.29 224.867 834.29 222.136C834.29 219.661 834.887 217.613 836.082 215.992C837.362 214.371 839.111 212.835 841.33 211.384C843.719 210.019 846.578 208.952 849.906 208.184C853.319 207.416 856.989 207.032 860.914 207.032C864.839 207.032 868.381 207.459 871.538 208.312C874.695 209.08 877.341 210.531 879.474 212.664C881.437 214.627 882.717 217.059 883.314 219.96C883.911 222.776 884.21 226.36 884.21 230.712V265.528C884.21 267.661 884.423 269.155 884.85 270.008C885.277 270.776 886.002 271.16 887.026 271.16C887.794 271.16 888.519 270.947 889.202 270.52C889.97 270.093 890.781 269.581 891.634 268.984L892.914 271.16C891.122 272.696 889.031 273.891 886.642 274.744C884.338 275.512 881.735 275.896 878.834 275.896C875.677 275.896 873.159 275.469 871.282 274.616C869.405 273.677 868.039 272.44 867.186 270.904C866.418 269.368 866.034 267.576 866.034 265.528C863.986 268.771 861.511 271.331 858.61 273.208C855.709 275 852.167 275.896 847.986 275.896ZM857.074 267.704C858.781 267.704 860.317 267.32 861.682 266.552C863.133 265.699 864.498 264.333 865.778 262.456V236.216C865.01 237.496 863.943 238.648 862.578 239.672C861.213 240.696 859.762 241.763 858.226 242.872C856.69 243.896 855.197 245.048 853.746 246.328C852.381 247.608 851.271 249.187 850.418 251.064C849.565 252.941 849.138 255.203 849.138 257.848C849.138 261.176 849.863 263.651 851.314 265.272C852.765 266.893 854.685 267.704 857.074 267.704ZM943.816 182.584C949.448 182.584 954.056 183.437 957.64 185.144C961.309 186.765 964.552 188.685 967.368 190.904C969.075 192.184 970.355 192.355 971.208 191.416C972.147 190.392 972.787 188.045 973.128 184.376H976.072C975.901 187.704 975.773 191.757 975.688 196.536C975.603 201.229 975.56 207.501 975.56 215.352H972.616C972.189 211.427 971.635 208.099 970.952 205.368C970.269 202.552 969.331 200.077 968.136 197.944C966.941 195.811 965.235 193.891 963.016 192.184C960.883 190.051 958.408 188.472 955.592 187.448C952.776 186.424 949.832 185.912 946.76 185.912C942.152 185.912 938.227 187.149 934.984 189.624C931.741 192.013 929.096 195.299 927.048 199.48C925.085 203.661 923.635 208.397 922.696 213.688C921.757 218.893 921.288 224.312 921.288 229.944C921.288 235.661 921.757 241.165 922.696 246.456C923.72 251.661 925.256 256.312 927.304 260.408C929.437 264.504 932.168 267.747 935.496 270.136C938.824 272.525 942.749 273.72 947.272 273.72C950.088 273.72 952.904 273.208 955.72 272.184C958.621 271.075 961.096 269.496 963.144 267.448C966.472 264.888 968.733 261.731 969.928 257.976C971.123 254.136 972.019 249.059 972.616 242.744H975.56C975.56 250.851 975.603 257.421 975.688 262.456C975.773 267.405 975.901 271.587 976.072 275H973.128C972.787 271.331 972.189 269.027 971.336 268.088C970.568 267.149 969.245 267.277 967.368 268.472C964.211 270.691 960.84 272.653 957.256 274.36C953.757 275.981 949.235 276.792 943.688 276.792C934.643 276.792 926.707 274.957 919.88 271.288C913.139 267.619 907.891 262.328 904.136 255.416C900.381 248.504 898.504 240.184 898.504 230.456C898.504 220.899 900.424 212.536 904.264 205.368C908.189 198.2 913.523 192.611 920.264 188.6C927.091 184.589 934.941 182.584 943.816 182.584ZM1012.31 174.904V218.936C1014.44 214.499 1017.3 211.427 1020.88 209.72C1024.55 207.928 1028.65 207.032 1033.17 207.032C1036.84 207.032 1039.78 207.501 1042 208.44C1044.22 209.293 1045.97 210.488 1047.25 212.024C1048.7 213.645 1049.72 215.736 1050.32 218.296C1051 220.856 1051.35 224.312 1051.35 228.664V263.096C1051.35 266.68 1051.94 269.112 1053.14 270.392C1054.42 271.672 1056.55 272.312 1059.54 272.312V275C1057.92 274.915 1055.44 274.829 1052.11 274.744C1048.87 274.573 1045.71 274.488 1042.64 274.488C1039.31 274.488 1036.07 274.573 1032.91 274.744C1029.84 274.829 1027.54 274.915 1026 275V272.312C1028.56 272.312 1030.35 271.672 1031.38 270.392C1032.4 269.112 1032.91 266.68 1032.91 263.096V223.288C1032.91 221.155 1032.7 219.32 1032.27 217.784C1031.85 216.163 1031.04 214.925 1029.84 214.072C1028.73 213.133 1027.11 212.664 1024.98 212.664C1022.67 212.664 1020.54 213.304 1018.58 214.584C1016.7 215.779 1015.16 217.485 1013.97 219.704C1012.86 221.923 1012.31 224.483 1012.31 227.384V263.096C1012.31 266.68 1012.82 269.112 1013.84 270.392C1014.87 271.672 1016.66 272.312 1019.22 272.312V275C1017.68 274.915 1015.42 274.829 1012.43 274.744C1009.45 274.573 1006.42 274.488 1003.35 274.488C1000.02 274.488 996.647 274.573 993.234 274.744C989.906 274.829 987.389 274.915 985.682 275V272.312C988.669 272.312 990.759 271.672 991.954 270.392C993.234 269.112 993.874 266.68 993.874 263.096V190.264C993.874 186.424 993.277 183.608 992.082 181.816C990.973 179.939 988.839 179 985.682 179V176.312C988.413 176.568 991.058 176.696 993.618 176.696C997.117 176.696 1000.44 176.568 1003.6 176.312C1006.76 175.971 1009.66 175.501 1012.31 174.904ZM1081.86 275.896C1078.02 275.896 1074.82 275.171 1072.26 273.72C1069.7 272.269 1067.82 270.349 1066.63 267.96C1065.43 265.485 1064.84 262.797 1064.84 259.896C1064.84 256.227 1065.65 253.24 1067.27 250.936C1068.98 248.632 1071.15 246.755 1073.8 245.304C1076.44 243.853 1079.22 242.659 1082.12 241.72C1085.1 240.781 1087.92 239.885 1090.57 239.032C1093.3 238.093 1095.47 237.027 1097.09 235.832C1098.8 234.552 1099.65 232.931 1099.65 230.968V220.984C1099.65 218.765 1099.27 216.803 1098.5 215.096C1097.82 213.304 1096.71 211.939 1095.17 211C1093.72 210.061 1091.8 209.592 1089.41 209.592C1087.71 209.592 1086 209.848 1084.29 210.36C1082.59 210.787 1081.18 211.555 1080.07 212.664C1082.46 213.517 1084.29 214.84 1085.57 216.632C1086.94 218.339 1087.62 220.301 1087.62 222.52C1087.62 225.421 1086.6 227.725 1084.55 229.432C1082.59 231.139 1080.24 231.992 1077.51 231.992C1074.44 231.992 1072.09 231.053 1070.47 229.176C1068.93 227.213 1068.17 224.867 1068.17 222.136C1068.17 219.661 1068.76 217.613 1069.96 215.992C1071.24 214.371 1072.99 212.835 1075.21 211.384C1077.59 210.019 1080.45 208.952 1083.78 208.184C1087.19 207.416 1090.86 207.032 1094.79 207.032C1098.71 207.032 1102.26 207.459 1105.41 208.312C1108.57 209.08 1111.22 210.531 1113.35 212.664C1115.31 214.627 1116.59 217.059 1117.19 219.96C1117.79 222.776 1118.09 226.36 1118.09 230.712V265.528C1118.09 267.661 1118.3 269.155 1118.73 270.008C1119.15 270.776 1119.88 271.16 1120.9 271.16C1121.67 271.16 1122.39 270.947 1123.08 270.52C1123.85 270.093 1124.66 269.581 1125.51 268.984L1126.79 271.16C1125 272.696 1122.91 273.891 1120.52 274.744C1118.21 275.512 1115.61 275.896 1112.71 275.896C1109.55 275.896 1107.03 275.469 1105.16 274.616C1103.28 273.677 1101.91 272.44 1101.06 270.904C1100.29 269.368 1099.91 267.576 1099.91 265.528C1097.86 268.771 1095.39 271.331 1092.49 273.208C1089.58 275 1086.04 275.896 1081.86 275.896ZM1090.95 267.704C1092.66 267.704 1094.19 267.32 1095.56 266.552C1097.01 265.699 1098.37 264.333 1099.65 262.456V236.216C1098.89 237.496 1097.82 238.648 1096.45 239.672C1095.09 240.696 1093.64 241.763 1092.1 242.872C1090.57 243.896 1089.07 245.048 1087.62 246.328C1086.26 247.608 1085.15 249.187 1084.29 251.064C1083.44 252.941 1083.01 255.203 1083.01 257.848C1083.01 261.176 1083.74 263.651 1085.19 265.272C1086.64 266.893 1088.56 267.704 1090.95 267.704ZM1156.43 187.832V208.824H1171.54V211.384H1156.43V263.096C1156.43 265.656 1156.9 267.491 1157.84 268.6C1158.78 269.624 1160.19 270.136 1162.06 270.136C1163.6 270.136 1165.14 269.581 1166.67 268.472C1168.21 267.277 1169.57 265.272 1170.77 262.456L1172.94 263.608C1171.58 267.448 1169.49 270.605 1166.67 273.08C1163.94 275.555 1160.19 276.792 1155.41 276.792C1152.59 276.792 1150.12 276.408 1147.98 275.64C1145.85 274.957 1144.06 273.891 1142.61 272.44C1140.73 270.563 1139.49 268.259 1138.9 265.528C1138.3 262.712 1138 259.085 1138 254.648V211.384H1127.25V208.824H1138V191.928C1141.58 191.928 1144.87 191.629 1147.86 191.032C1150.93 190.349 1153.79 189.283 1156.43 187.832Z" fill="#419053"/>
</svg>
